<?xml version="1.0" encoding="UTF-8"?>
<!DOCTYPE svg PUBLIC "-//W3C//DTD SVG 1.1//EN" "http://www.w3.org/Graphics/SVG/1.1/DTD/svg11.dtd">
<!-- Creator: CorelDRAW -->
<svg xmlns="http://www.w3.org/2000/svg" xml:space="preserve" width="32px" height="112889px" version="1.1" style="shape-rendering:geometricPrecision; text-rendering:geometricPrecision; image-rendering:optimizeQuality; fill-rule:evenodd; clip-rule:evenodd"
viewBox="0 0 3200000 3200000"
 xmlns:xlink="http://www.w3.org/1999/xlink"
 xmlns:xodm="http://www.corel.com/coreldraw/odm/2003">
 <defs>
  <style type="text/css">
   <![CDATA[
    .fil16 {fill:none}
    .fil5 {fill:#06A29B}
    .fil15 {fill:#118346}
    .fil3 {fill:#333C7F}
    .fil11 {fill:#3AAAE1}
    .fil6 {fill:#94633E}
    .fil8 {fill:#96C12B}
    .fil10 {fill:#972983}
    .fil1 {fill:#999999}
    .fil12 {fill:#B3B3B3}
    .fil0 {fill:#CCCCCC}
    .fil7 {fill:#E1C21B}
    .fil9 {fill:#E31E25}
    .fil13 {fill:#E60A80}
    .fil14 {fill:#E95329}
    .fil4 {fill:#333C7F;fill-rule:nonzero}
    .fil2 {fill:#C2C4D9}
   ]]>
  </style>
   <clipPath id="id0">
    <path d="M13000 0l3174000 0c7000,0 13000,6000 13000,13000l0 3174000c0,7000 -6000,13000 -13000,13000l-3174000 0c-7000,0 -13000,-6000 -13000,-13000l0 -3174000c0,-7000 6000,-13000 13000,-13000z"/>
   </clipPath>
 </defs>
 <g id="Camada_x0020_1">
  <metadata id="CorelCorpID_0Corel-Layer"/>
  <g>
  </g>
  <g style="clip-path:url(#id0)">
   <g id="_105553283799424">
    <path class="fil0" d="M2000 2972000l796000 -797000c1000,-1000 2000,-3000 2000,-5000l0 -1498000c0,-2000 -1000,-3000 -2000,-2000l-796000 797000c-1000,1000 -2000,3000 -2000,5000l0 1498000c0,2000 1000,2000 2000,2000z"/>
    <path class="fil1" d="M1598000 2972000l-796000 -797000c-1000,-1000 -2000,-3000 -2000,-5000l0 -1498000c0,-2000 1000,-3000 2000,-2000l796000 797000c1000,1000 2000,3000 2000,5000l0 1498000c0,2000 -1000,2000 -2000,2000z"/>
    <path class="fil2" d="M1602000 2972000l796000 -797000c1000,-1000 2000,-3000 2000,-5000l0 -1498000c0,-2000 -1000,-3000 -2000,-2000l-796000 797000c-1000,1000 -2000,3000 -2000,5000l0 1498000c0,2000 1000,2000 2000,2000z"/>
    <path class="fil3" d="M3198000 2972000l-796000 -797000c-1000,-1000 -2000,-3000 -2000,-5000l0 -1498000c0,-2000 1000,-3000 2000,-2000l796000 797000c1000,1000 2000,3000 2000,5000l0 1498000c0,2000 -1000,2000 -2000,2000z"/>
    <g>
     <g>
      <path class="fil4" d="M1052000 896000l666000 667000 -24000 24000 -667000 -667000 0 -24000 25000 0zm-25000 24000l-12000 -12000 12000 -12000 0 24000zm704000 -680000l-679000 680000 -25000 -24000 680000 -680000 24000 24000z"/>
     </g>
     <g>
      <path class="fil4" d="M1277000 1058000l-148000 147000 -24000 -24000 147000 -147000 25000 24000zm636000 -636000l-636000 636000 -25000 -24000 637000 -636000 24000 24000zm-12000 -12000l0 0 0 0 0 0z"/>
     </g>
     <g>
      <polygon class="fil4" points="1687000,1019000 1315000,1391000 1291000,1367000 1663000,995000 "/>
     </g>
     <g>
      <polygon class="fil4" points="1882000,1214000 1510000,1586000 1486000,1561000 1858000,1190000 "/>
     </g>
     <g>
      <polygon class="fil4" points="1140000,628000 1897000,1385000 1873000,1409000 1116000,652000 "/>
     </g>
     <g>
      <polygon class="fil4" points="1334000,434000 1695000,795000 1671000,819000 1310000,458000 "/>
     </g>
     <g>
      <polygon class="fil4" points="1521000,247000 1882000,608000 1858000,632000 1497000,271000 "/>
     </g>
     <polygon class="fil5" points="1599000,324000 1623000,349000 1599000,373000 1575000,349000 "/>
     <polygon class="fil6" points="1411000,512000 1436000,536000 1412000,560000 1387000,536000 "/>
     <polygon class="fil7" points="1218000,705000 1242000,730000 1218000,754000 1194000,730000 "/>
     <polygon class="fil8" points="1780000,506000 1804000,530000 1780000,554000 1756000,530000 "/>
     <polygon class="fil9" points="1593000,693000 1617000,717000 1593000,742000 1569000,717000 "/>
     <polygon class="fil10" points="1399000,887000 1424000,911000 1399000,935000 1375000,911000 "/>
     <polygon class="fil11" points="1221000,1065000 1245000,1089000 1221000,1114000 1197000,1089000 "/>
     <polygon class="fil12" points="1585000,1073000 1609000,1097000 1585000,1121000 1561000,1097000 "/>
     <polygon class="fil13" points="1407000,1251000 1431000,1275000 1407000,1300000 1383000,1275000 "/>
     <polygon class="fil14" points="1780000,1267000 1804000,1292000 1780000,1316000 1756000,1292000 "/>
     <polygon class="fil15" points="1601000,1446000 1626000,1470000 1601000,1494000 1577000,1470000 "/>
    </g>
   </g>
  </g>
  <path class="fil16" d="M13000 0l3174000 0c7000,0 13000,6000 13000,13000l0 3174000c0,7000 -6000,13000 -13000,13000l-3174000 0c-7000,0 -13000,-6000 -13000,-13000l0 -3174000c0,-7000 6000,-13000 13000,-13000z"/>
 </g>
</svg>
